<?xml version="1.0" encoding="UTF-8" standalone="no"?>
<!-- Created with Inkscape (http://www.inkscape.org/) -->

<svg
    width="40"
    height="40"
    viewBox="0 0 10.583333 10.583333"
    version="1.1"
    id="svg5"
    xmlns="http://www.w3.org/2000/svg"
>
  <defs
      id="defs2"/>
  <g
      id="layer1">
    <g
        fill="none"
        fill-rule="evenodd"
        id="g36"
        transform="matrix(0.62088889,0,0,0.58208333,0.01411111,0.05291667)">
      <path
          fill="#9aa7b0"
          d="m 9,8 h 5 l 2,4 -2,4 H 9 L 7,12 Z m 2,1.5500091 C 9.8588798,9.7816442 9,10.790521 9,12 c 0,1.380712 1.119288,2.5 2.5,2.5 1.380712,0 2.5,-1.119288 2.5,-2.5 0,-1.209479 -0.85888,-2.2183558 -2,-2.4499909 V 9 h -1 z m 0,1.0353439 V 12 h 1 v -1.414647 c 0.582596,0.205918 1,0.761538 1,1.414647 0,0.828427 -0.671573,1.5 -1.5,1.5 -0.828427,0 -1.5,-0.671573 -1.5,-1.5 0,-0.653109 0.417404,-1.208729 1,-1.414647 z"
          id="path32"/>
      <path
          fill="#62b543"
          fill-opacity="0.7"
          d="m 7.1198631,14.290629 c -0.9576882,-0.02548 -1.8772661,-0.072 -2.6726907,-0.03603 0,0 -0.5043415,0.02863 -1.0127751,0.112484 0,0 0.192325,-0.08181 0.4378462,-0.166681 1.2138432,-0.419548 2.039544,-0.635689 2.7730577,-0.88047 z M 12.913133,7 C 12.970498,6.7949321 13.017646,6.5886473 13.053715,6.3817562 12.982461,6.5904006 12.89929,6.7966555 12.805308,7 H 8.4444444 L 6,12 6.1580231,12.323229 c -1.6344665,0.481145 -3.6555835,0.883408 -3.6555835,0.88425 L 2.381725,13.143057 C 0.35412871,12.157289 0.29786342,7.7693975 3.9786361,6.3551691 5.5929383,5.7344629 7.1366531,6.0760047 8.8808769,5.6598146 10.741723,5.2180599 12.896172,3.8191702 13.771865,2 14.327504,3.6459979 14.945886,5.8169206 14.99665,7.9022376 L 14.555556,7 Z"
          id="path34"/>
    </g>
  </g>
</svg>
